<svg width="569" height="234" viewBox="0 0 569 234" fill="none" xmlns="http://www.w3.org/2000/svg">
<path fill-rule="evenodd" clip-rule="evenodd" d="M557.133 7.75C522.038 31.727 512.816 39.56 499.735 56.5C492 66.517 492.265 66.383 478.089 67.475C471.327 67.996 467.692 67.72 461 66.178C456.325 65.101 450.423 63.927 447.885 63.569C445.347 63.211 442.438 62.309 441.42 61.565C439.621 60.25 439.621 60.118 441.431 56.757C443.711 52.524 443.082 49.37 439.109 45.117C434.516 40.199 433 40.896 433 47.923C433 52.857 433.438 54.367 435.624 56.966C437.068 58.681 438 60.334 437.695 60.638C436.638 61.695 427.23 58.278 423.625 55.527C419.632 52.482 418.943 50.911 421.944 51.695C424.551 52.377 429 47.855 429 44.523C429 41.44 421.625 33 418.932 33C416.484 33 415.643 34.585 414.951 40.5C414.394 45.266 414.314 45.377 413.25 42.861C412.636 41.41 410.758 38.655 409.077 36.74C407.086 34.473 405.928 31.992 405.76 29.631C405.466 25.526 404 24.633 404 28.559C404 33.5 402.261 29.985 402.144 24.808C402.05 20.628 401.514 19.06 399.488 17.036C397.261 14.811 396.104 14.5 390.054 14.504C386.262 14.506 382.914 14.753 382.614 15.053C381.925 15.742 386.426 24.708 388.75 27.276C391.294 30.088 395.432 31.989 399.2 32.078C402.429 32.153 402.4 32.191 397.821 33.828C395.247 34.747 392.897 35.75 392.598 36.057C392.298 36.363 393.366 38.05 394.97 39.807C397.66 42.751 398.378 43 404.194 43.002L410.5 43.004L413.75 47.773C416.972 52.5 418.108 55.508 415.8 53.2C412.474 49.874 403.979 54.272 400.414 61.166C399.092 63.723 399.098 64.1 400.473 64.628C402.343 65.345 408.353 64.296 412.65 62.501C414.895 61.563 415.996 60.297 416.48 58.093C416.853 56.392 417.467 55 417.843 55C418.219 55 420.771 56.507 423.513 58.348C429.624 62.45 432.39 63.348 447 65.974C453.325 67.11 461.564 68.761 465.309 69.642C469.868 70.715 474.889 71.099 480.497 70.805C488.258 70.397 488.806 70.495 487.932 72.127C486.61 74.596 486.249 74.766 471.847 79.664C447.637 87.897 433.994 90.1 422.361 87.655C409.915 85.038 402.489 79.584 400.154 71.343C398.83 66.674 393.23 61.065 389.715 60.889C385.836 60.695 382.58 61.171 379.7 62.352L376.9 63.5L381.913 69.118C387.577 75.467 392.881 78.474 396.972 77.656C399.17 77.216 400.372 77.789 403.052 80.554C406.763 84.383 406.25 84.705 399.973 82.49C393.948 80.365 380.51 77.226 374 76.423C369.093 75.819 367.996 75.217 363.825 70.839C360.621 67.476 358.279 63.663 356.379 58.716C354.855 54.747 352.253 49.565 350.598 47.199C348.209 43.786 347.505 41.588 347.184 36.549L346.78 30.198L350.251 28.551C355.648 25.99 357.467 20.19 354.5 15C353.714 13.625 353.055 11.487 353.035 10.25C353.016 9.013 352.507 8 351.904 8C349.676 8 345.224 12.048 343.959 15.224C343.242 17.026 342.56 18.635 342.445 18.799C342.329 18.964 340.544 17.952 338.478 16.549C336.411 15.147 334.334 14 333.86 14C332.268 14 333.026 22.461 335.01 26.832C336.328 29.736 337.923 31.522 339.847 32.248C341.656 32.931 343.14 34.499 343.859 36.487C345.527 41.1 345.448 41.142 340.105 38.459C337.412 37.106 333.794 36 332.065 36C328.458 36 321 39.486 321 41.172C321 43.1 329.317 49.946 332.885 50.956C338.905 52.659 345.81 47.934 343.403 43.759C343.004 43.067 343.901 43.615 345.396 44.978C348.994 48.258 353.664 56.576 354.527 61.241C354.908 63.298 356.956 67.46 359.078 70.491C362.415 75.253 362.677 76 361.016 76C356.967 76 354 73.804 354 70.807C354 63.467 349.244 58.725 340.449 57.298C337.449 56.811 337 57.008 337 58.804C337 64.311 343.53 73 347.669 73C350.552 73 354 74.653 354 76.035C354 76.566 352.945 77 351.657 77C349.012 77 339.855 79.99 335.326 82.331C331.283 84.422 328.709 83.046 319 73.601C310.586 65.416 305.131 61.966 296.759 59.532C292.749 58.366 290.269 56.921 288.446 54.685C286.153 51.873 285.929 51.779 286.535 53.886C287.17 56.093 287.011 56.22 284.421 55.57C280.786 54.657 269.009 47.773 266.679 45.198C265.502 43.898 265.242 42.968 265.935 42.54C267.826 41.372 267.148 33.839 264.849 30.485C262.513 27.076 254.15 20.79 252.942 21.536C252.532 21.789 251.886 24.677 251.505 27.953C250.411 37.385 254.902 44.778 262.018 45.256C263.383 45.348 266.075 46.915 268 48.739C269.925 50.563 274.987 53.817 279.249 55.97C283.511 58.122 286.549 60.161 285.999 60.501C283.732 61.902 285.225 62.818 288.128 61.806C290.608 60.941 292.419 61.078 296.878 62.47C304.494 64.847 305 65.41 305 71.506C305 77.386 304.251 77.96 296.533 77.986C291.593 78.003 284 80.814 284 82.626C284 84.458 292.754 90.701 296.324 91.415C299.982 92.146 304 91.156 304 89.523C304 88.015 314.016 87.675 317.659 89.06C319.151 89.628 321.881 89.531 325.057 88.798C329.949 87.668 330.166 87.715 332.795 90.455C335.02 92.774 335.145 93.143 333.5 92.533C332.4 92.124 327.591 91.552 322.814 91.26C315.821 90.833 313.827 91.03 312.59 92.268C310.156 94.701 302.846 95.152 283.405 94.07C257.916 92.65 255.214 91.371 245.222 76C242.166 71.3 236.087 64.014 231.622 59.702L223.549 51.904L223.46 46.487C223.398 42.625 222.816 40.453 221.436 38.924C218.865 36.076 205.969 29.625 204.945 30.675C204.502 31.129 204.475 34.307 204.885 37.739C205.423 42.242 206.293 44.683 208.014 46.514L210.397 49.051L206.073 47.526C203.694 46.687 201.046 46 200.186 46C199.327 46 197.021 44.186 195.062 41.969C190.942 37.306 188.158 36.828 178.111 39.057C173.716 40.032 172.017 40.845 172.218 41.878C172.606 43.874 181.439 46.818 187.5 46.971L192.5 47.097L186 50.475C178.39 54.429 177.118 54.308 168.531 48.816C164.153 46.016 161.815 43.668 160 40.247C157.134 34.847 152.041 31 147.756 31C142.788 31 133.776 34.009 134.77 35.336C142.923 46.217 146.576 48.935 153.218 49.063C156.27 49.122 156.337 49.192 154.166 50.062C150.789 51.416 151.912 53.072 157.397 54.822C161.093 56.002 163.293 56.13 166.956 55.38C169.721 54.813 172.795 54.765 174.293 55.264L176.871 56.124L173.743 60.562C170.644 64.959 168.729 65.988 167.462 63.938C166.13 61.783 161.888 60.953 157.812 62.051C154.155 63.035 145 70.179 145 72.047C145 72.483 147.219 73.576 149.93 74.477C156.063 76.514 161.318 75.373 166.015 70.986C169.847 67.407 169.991 67.38 170.032 70.25C170.063 72.444 170.1 72.451 171.532 70.559C172.339 69.491 173 67.786 173 66.768C173 64.518 177.004 58.884 178.115 59.571C178.553 59.842 179.676 58.897 180.61 57.472C182.738 54.225 194.056 48.993 198.888 49.022C200.875 49.034 204.511 49.956 206.968 51.071C211.434 53.096 211.435 53.099 208.97 54.327C207.614 55.004 205.603 56.989 204.502 58.74C203.368 60.542 201.633 61.941 200.5 61.965C197.446 62.03 192.268 65.581 190.642 68.726C188.395 73.07 187.948 87 190.055 87C191.916 87 202.948 79.009 204.63 76.442C206.209 74.032 206.183 72.622 204.413 64.87C203.52 60.958 208.235 56.046 213.571 55.331C219.435 54.544 227.088 58.609 231.301 64.747C233.06 67.311 236.106 71.23 238.069 73.455C241.737 77.613 248.418 88 247.425 88C247.119 88 245.96 87.514 244.849 86.919C242.162 85.481 241.136 86.648 243.541 88.406C245.321 89.708 245.204 89.888 241.595 91.396C235.415 93.978 235.172 93.804 237.662 88.582C239.065 85.641 239.114 84.843 237.979 83.475C236.093 81.202 230.115 78.3 225.56 77.445C221.714 76.724 221.714 76.724 222.43 79.612C224.238 86.899 226.695 90.635 231.02 92.67C234.875 94.484 235.078 94.746 233.038 95.28C231.328 95.727 230.056 95.09 227.861 92.686C225.294 89.876 224.328 89.5 219.685 89.5C215.225 89.5 213.775 90.01 210.21 92.834C207.894 94.668 206 96.491 206 96.885C206 98.389 215.234 102 219.079 102C221.292 102 224.768 101.145 226.802 100.101C232.222 97.318 240.91 93.921 245.596 92.754C249.067 91.889 250.9 92.125 257.596 94.299C261.943 95.709 267.525 97.179 270 97.565C274.053 98.196 274.261 98.354 272.101 99.156C270.781 99.645 265.831 102.398 261.101 105.273C253.161 110.099 252.025 110.499 246.311 110.482C241.359 110.467 239.66 110.031 237.811 108.298C236.54 107.108 234.233 105.653 232.685 105.067C229.223 103.755 221 103.658 221 104.929C221 105.44 222.499 107.447 224.332 109.39C226.719 111.921 228.867 113.115 231.913 113.602C235.998 114.255 236.092 114.349 234.331 116.034C231.833 118.425 222.918 123 220.758 123C219.791 123 219 123.45 219 124C219 124.55 219.863 125 220.917 125C223.37 125 231.571 121.503 232.449 120.083C233.87 117.783 234.486 119.199 234.153 123.999C233.758 129.709 234.419 130.055 239.437 126.765C243.349 124.201 246.26 119.842 245.458 117.75C244.758 115.928 246.47 114.584 251.5 113.006C253.7 112.316 258.152 110.161 261.393 108.217C264.634 106.272 269.578 103.576 272.379 102.224C277.719 99.648 289 97.951 289 99.724C289 101.467 279.296 109.884 276.336 110.709C274.776 111.144 270.485 111.466 266.799 111.425C263.113 111.383 260.327 111.721 260.608 112.175C260.889 112.629 261.766 113 262.559 113C264.151 113 264.535 115.552 263.078 116.452C262.571 116.765 261.187 119.934 260.002 123.494C256.706 133.398 255.994 133.962 245.496 134.991C240.548 135.476 235.051 136.18 233.279 136.555C229.67 137.321 211.988 133.423 210.773 131.594C209.736 130.034 210.866 127.057 213.624 124.083C216.172 121.335 216.702 116.977 215.025 112.565C213.647 108.942 210.44 109.252 207.931 113.25C205.874 116.527 205.818 119.097 207.609 127.864C208.282 131.161 208.247 131.203 205.898 129.974C202.329 128.106 198.087 122.82 198.041 120.184C197.976 116.52 196.237 114.161 192.006 112.003C188.33 110.128 184 109.332 184 110.532C184 110.825 184.699 112.737 185.553 114.782C187.581 119.637 191.822 124 194.513 124C195.689 124 197.708 125.125 199 126.5C201.761 129.439 201.309 129.592 196.561 127.328C193.601 125.916 192.155 125.824 187.277 126.739C181.787 127.768 181.306 127.69 177.586 125.161C174.518 123.074 172.415 122.481 167.844 122.412C162.5 122.331 161.721 122.019 158.46 118.662C156.504 116.648 154.559 115 154.137 115C152.763 115 150 121.983 150 125.457C150 129.36 153.834 134.584 157.284 135.383C158.503 135.665 155.784 135.708 151.242 135.478C141.699 134.996 140.292 134.403 133.417 127.964C130.622 125.346 126.084 122.063 123.334 120.669C118.96 118.453 117.984 117.355 115.536 111.901L112.738 105.666L115.492 103.66C117.007 102.556 118.872 100.156 119.637 98.327C121.324 94.289 119.968 90.471 114.935 85.092L111.746 81.685L109.841 84.092C106.286 88.586 104.795 92.226 105.358 95.04C105.897 97.737 105.847 97.771 103.205 96.503C98.0378 94.022 95.9998 93.733 95.9998 95.482C95.9998 100.324 101.894 107.614 106.935 109.008C110.463 109.984 115.458 115.45 114.395 117.171C113.443 118.711 110.109 118.014 106.405 115.5C100.792 111.691 96.4338 112.124 89.6258 117.168C83.9238 121.392 83.1978 122.387 85.0028 123.502C85.6638 123.91 85.6288 124.824 84.9018 126.183C83.4238 128.945 84.3748 133.098 87.6028 137.977C91.5228 143.9 93.9998 143.027 93.9998 135.723C93.9998 133.707 93.0528 131.621 91.3128 129.805C88.2788 126.638 89.1648 126.238 93.9388 128.619C97.8278 130.56 104.253 129.986 107.058 127.447C108.105 126.5 109.245 124.212 109.592 122.363C110.075 119.784 110.721 119.003 112.361 119.013C116.041 119.036 128.597 126.703 132.008 131.01C133.774 133.24 136.857 135.93 138.86 136.988L142.5 138.912L138.372 138.956C135.971 138.982 133.724 139.627 133 140.5C131.11 142.777 130 142.305 130 139.223C130 133.525 124.038 129 116.532 129C112.324 129 112.177 129.92 115.486 135.566C117.182 138.46 119.413 140.506 122.507 142.003L127.042 144.199L126.392 149.099C125.965 152.318 126.11 154 126.812 154C127.401 154 128.16 153.55 128.5 153C128.84 152.45 131.309 152 133.986 152C138.055 152 139.195 151.567 140.927 149.365C142.067 147.916 143 145.43 143 143.84C143 140.109 145.792 139 155.181 139H162.233L158.865 142.75C157.013 144.813 154.008 148.833 152.186 151.685C149.45 155.969 147.737 157.403 142.325 159.935C136.88 162.483 134.536 163 128.423 163C120.218 163 119.713 162.617 118.501 155.482C117.408 149.043 117.143 148.516 114.097 146.716C112.207 145.6 109.06 145 105.096 145C99.3918 145 98.9998 145.149 98.9998 147.313C98.9998 151.896 106.675 157 113.565 157C116.371 157 117 157.379 117 159.067C117 160.745 116.576 161.007 114.75 160.458C109.71 158.943 99.1338 152.53 93.9828 147.865C87.9478 142.399 77.9758 135.531 70.9998 132.038C65.8068 129.437 60.4368 124.66 58.4538 120.876C57.3758 118.819 57.3248 117.6 58.2158 115.238C60.2098 109.956 58.2818 105.952 52.1538 102.651C49.2448 101.083 46.5998 100.067 46.2758 100.391C45.1148 101.551 44.2568 110.543 45.0948 112.75C45.8788 114.811 45.6638 115 42.5338 115C38.4858 115 37.3338 116.388 38.9208 119.353C40.9648 123.173 46.2058 126 51.2418 126C55.1658 126 55.9088 125.684 56.1798 123.9C56.4738 121.968 56.6808 122.046 58.7588 124.872C60.5408 127.295 60.6648 127.809 59.3448 127.302C58.2878 126.897 57.9158 127.055 58.3348 127.733C58.7468 128.399 56.3338 129.615 51.9738 130.939C45.1328 133.017 37.7138 138.047 39.2398 139.573C39.6458 139.979 41.6148 140.579 43.6148 140.906L47.2518 141.5L40.0128 146.5C33.8198 150.778 32.4488 152.278 30.5228 156.886C27.5108 164.091 28.3958 168.18 34.0638 173.25C36.3698 175.312 38.8128 177 39.4928 177C41.5418 177 42.0878 168.55 40.5198 161.096C39.7248 157.316 39.0038 153.836 38.9188 153.362C38.5378 151.254 39.1748 150.116 41.6348 148.504L44.2688 146.777L42.6348 149.111C40.1618 152.642 40.5748 158.4 43.6328 163.021C45.0808 165.21 46.6078 167 47.0258 167C48.2038 167 49.0098 164.201 49.6808 157.779C50.2078 152.737 49.9878 151.475 48.1478 148.986C46.9668 147.388 45.9998 145.878 45.9998 145.63C45.9998 145.382 48.9908 143.29 52.6468 140.982C63.6268 134.047 73.9848 134.392 82.9998 141.995C86.0868 144.598 86.2468 144.949 84.3608 144.973C81.9678 145.003 77.1498 148.476 78.1318 149.462C78.4788 149.811 81.8538 150.433 85.6318 150.845C92.1318 151.553 97.0228 153.759 108 160.933C109.255 161.753 108.966 162.411 106.234 164.957C104.438 166.63 102.188 168.002 101.234 168.004C100.28 168.006 98.0788 168.874 96.3408 169.933C93.2228 171.835 93.1608 171.835 91.4358 169.93C88.6758 166.879 83.5638 167.42 78.9508 171.25C76.7978 173.037 75.0278 175.041 75.0178 175.703C74.9998 176.904 80.8758 178.984 84.3158 178.994C85.3138 178.997 87.0398 178.514 88.1508 177.919C90.9178 176.438 91.2578 177.094 90.4658 182.376C89.5598 188.419 85.2908 195 82.2768 195C81.0238 195 79.9998 194.562 79.9998 194.026C79.9998 191.881 73.9478 190 67.0498 190C61.5988 190 59.9998 190.325 59.9998 191.432C59.9998 193.416 65.4988 197.138 71.3658 199.124L76.2738 200.785L71.3868 202.957C68.6988 204.151 64.8128 205.659 62.7498 206.308C58.4528 207.659 57.8298 209 61.4998 209C62.8748 209 63.9998 209.436 63.9998 209.969C63.9998 211.133 66.8908 210.215 69.0628 208.362C70.4598 207.17 70.5798 207.659 70.1948 212.978C69.6818 220.07 70.5018 224 72.4928 224C74.8998 224 76.9998 218.51 76.9998 212.216C76.9998 205.572 76.5278 204.647 73.8688 206.07C72.8408 206.62 71.9998 206.841 71.9998 206.561C71.9998 206.281 73.2898 205.384 74.8668 204.569C76.4438 203.753 79.7188 201.571 82.1458 199.719L86.5568 196.351L86.2258 199.426C85.8658 202.771 89.8188 211.509 91.4998 211.083C92.5958 210.804 94.8898 202.047 94.9578 197.885C94.9808 196.447 94.1238 194.157 93.0538 192.796C91.2158 190.459 91.1878 189.942 92.5398 183.481C93.5368 178.714 94.7898 175.785 96.6728 173.82C99.4268 170.945 103 170.031 103 172.202C103 172.863 104.639 171.063 106.642 168.202C110.242 163.059 111.271 162.573 115.84 163.857C117.971 164.456 117.749 164.725 113.34 166.887C109.206 168.913 108.792 169.366 110.5 169.986C112.313 170.644 112.173 170.912 109 172.852C107.075 174.029 104.765 174.994 103.867 174.996C102.271 175 100.639 178.607 101.56 180.097C101.815 180.51 104.245 181.585 106.96 182.487C113.988 184.821 116 183.582 116 176.919C116 169.592 118.418 167.527 128.042 166.633C132.372 166.231 137.177 165.077 139.5 163.881L143.5 161.822L139.86 165.661C135.052 170.733 133.174 174.669 132.393 181.314C131.806 186.31 131.499 186.85 128.957 187.359C124.557 188.239 121.111 193.643 120.359 200.843C120.005 204.229 120.027 207 120.407 207C124.018 207 132 198.528 132 194.696C132 192.072 133.706 192.694 134.431 195.583C134.788 197.004 136.234 199.994 137.644 202.229L140.209 206.291L137.979 210.756C136.061 214.596 135.903 215.73 136.846 218.86C137.909 222.385 143.396 230 144.874 230C145.274 230 146.591 227.963 147.801 225.473C150.098 220.746 150.652 214.565 149.008 212C148.215 210.762 149.046 210.321 153.774 209.471C160.261 208.306 161 206.836 156.711 203.633C153.926 201.554 148.957 200.99 142.513 202.022C139.631 202.483 139.445 202.273 137.217 196.037C135.767 191.977 135.018 187.91 135.204 185.102L135.5 180.631L139.367 184.721C141.493 186.971 144.418 189.044 145.867 189.328C148.932 189.93 157.72 188.262 158.548 186.922C159.394 185.554 150.889 177.162 147.968 176.482C146.203 176.071 144.312 176.656 141.72 178.415C138.111 180.864 134.977 180.971 135.022 178.643C135.08 175.6 139.195 168.957 142.911 165.906C145.193 164.033 149.969 158.557 153.525 153.738C159.874 145.134 164.676 141.011 168.358 141.004C169.885 141.001 170.095 141.491 169.534 143.75C169.159 145.262 167.889 147.532 166.712 148.793C164.199 151.485 163.759 159.589 165.852 164.642C167.304 168.148 172.048 171.331 172.742 169.265C173.058 168.325 173.878 168.403 176.171 169.589C177.829 170.446 179.286 171.002 179.408 170.824C179.53 170.646 180.18 167.086 180.853 162.914C181.733 157.451 181.778 154.547 181.015 152.539C180.101 150.136 180.324 149.264 182.62 146.254C184.175 144.214 187.622 141.688 190.893 140.188C197.822 137.012 208.313 136.734 220.831 139.394C228.494 141.023 229.737 141.043 236.331 139.641C240.274 138.803 245.975 137.841 249 137.504L254.5 136.89L252 138.942C246.337 143.592 228.696 145.756 223 142.5C219.733 140.632 214.981 140.624 212.329 142.482C211.166 143.297 209.402 146.222 208.409 148.982C206.681 153.789 206.448 154 202.868 154C197.916 154 194.967 155.212 190.611 159.037C186.735 162.44 186.082 164 188.533 164C189.377 164 192.287 165.125 195 166.5C201.866 169.979 205.155 169.758 209.868 165.5C212.513 163.111 214.711 162 216.794 162C218.656 162 221.106 160.94 223.074 159.284C225.571 157.183 226.063 157.014 225.248 158.534C224.669 159.615 222.913 161.683 221.347 163.129C219.781 164.575 216.561 168.064 214.191 170.883C210.57 175.19 209.583 175.847 208.007 175.004C205.534 173.68 201.929 175.089 198.576 178.688C195.758 181.713 193.331 188.768 194.677 190.019C195.13 190.439 197.683 190.215 200.352 189.52C205.912 188.073 210.964 183.616 211.371 179.798C211.522 178.387 213.257 175.349 215.228 173.047L218.811 168.861L219.581 172.181C220.005 174.006 220.245 178.28 220.114 181.679C219.889 187.537 220.068 188.069 223.555 191.929C228.862 197.803 230 197.365 230 189.45C230 182.194 228.182 177.51 224.969 176.49C223.652 176.072 223.091 175.241 223.405 174.169C223.674 173.251 224.203 170.7 224.582 168.5C225.348 164.047 228.231 157.804 231.277 154L233.278 151.5L232.592 154.5C232.214 156.15 231.671 158.287 231.385 159.25C231.099 160.213 231.295 161 231.821 161C232.347 161 233.067 159.457 233.421 157.571C234.306 152.85 236.82 150.313 241.25 149.67L245 149.126V155.063C245 158.328 245.241 161 245.535 161C249.374 161 256 150.56 256 144.512C256 141.689 256.516 140.722 258.504 139.816C261.682 138.368 262.32 139.028 261.028 142.426C259.008 147.739 260.055 158 262.617 158C263.378 158 264.01 159.012 264.022 160.25C264.056 163.695 267.8 171.233 269.24 170.754C271.174 170.111 272.302 159.851 270.819 156.388C270.139 154.799 269.564 150.125 269.541 146C269.503 139.109 269.703 138.359 272 136.757C273.375 135.798 275.793 135.01 277.372 135.007C279.817 135.001 280.059 135.224 278.996 136.505C275.959 140.164 279.917 152.95 284.356 153.823C285.734 154.094 286 153.18 286 148.178C286 143.122 285.621 141.85 283.517 139.855C279.675 136.21 280.293 135 286 135C290.667 135 291 135.167 291 137.5C291 138.875 291.428 140 291.951 140C295.51 140 305.227 136.457 308.898 133.821C313.312 130.652 327.391 124.035 329.77 124.012C331.669 123.994 325.417 134.43 323.279 134.847C322.301 135.038 320.232 136.388 318.683 137.847C316.253 140.136 315.154 140.457 310.683 140.184C305.559 139.871 296 142.957 296 144.924C296 147.928 308.619 150.344 312.754 148.132C314.336 147.285 314.96 147.315 315.34 148.258C315.616 148.941 315.878 148.428 315.921 147.118C316.027 143.934 319.78 138 321.689 138C322.757 138 322.992 138.524 322.472 139.75C319.519 146.719 319 149.78 319.21 159.008C319.407 167.692 319.176 169.289 317.371 171.72C313.797 176.531 310.839 177.639 305.434 176.194C301.217 175.066 300.326 175.148 296.457 177.021C288.057 181.087 288.117 184 296.599 184C300.125 184 303.492 183.279 306.04 181.98C308.218 180.868 310 180.397 310 180.933C310 183.58 307.401 187.013 304.677 187.963C300.427 189.444 298.242 191.664 295.964 196.815C293.462 202.47 293.489 204 296.09 204C301.333 204 310.466 193.852 313.082 185.12C315.029 178.622 316.338 178.169 320.999 182.38C324.329 185.388 325.752 186 329.421 186C334.28 186 337 185.253 337 183.917C337 182.576 321.665 173.914 320.251 174.457C318.67 175.064 318.65 173.505 320.202 170.684C320.863 169.483 321.683 163.325 322.025 157C322.432 149.462 323.194 144.467 324.237 142.5L325.828 139.5L326.499 142.155C327.682 146.841 334.345 151 340.668 151C342.745 151 342.957 150.66 342.386 148.25C340.315 139.518 336.517 135 331.247 135H327.872L330.186 130.862C335.035 122.191 343.058 115.992 356.284 110.697C364.394 107.45 367.54 107.365 378.432 110.097L386.792 112.193L382.802 115.798C378.817 119.398 378.81 119.4 377.156 117.318C373.858 113.168 368.116 111.865 362.512 113.995C359.633 115.09 352 120.925 352 122.031C352 122.414 354.759 123.965 358.132 125.479C362.817 127.581 365.285 128.115 368.592 127.743L372.92 127.255L371.434 130.127C370.44 132.049 369.174 133 367.609 133C364.073 133 360.175 136.637 358.988 141.043C357.948 144.906 358.598 154.633 359.952 155.47C361.227 156.258 371.488 148.407 372.847 145.603C373.907 143.415 373.955 141.879 373.073 138.376C372.009 134.15 372.113 133.697 375.161 129.266C376.925 126.702 378.533 125.1 378.735 125.706C378.937 126.311 377.954 127.955 376.551 129.358C373.567 132.342 373.272 136.14 375.578 141.903C378.262 148.612 380.662 148.196 383.674 140.5C385.439 135.99 385.224 132.554 383 129.727C380.137 126.087 380.517 123.283 384.4 119.4C388.705 115.095 390.095 115.054 389.45 119.25C388.991 122.238 389.046 122.319 390.128 120.25C390.776 119.012 391.597 118 391.952 118C393.258 118 391.674 125.518 390.131 126.646C388.721 127.677 388.975 128.447 392.346 133.341C398.079 141.665 402.86 144.038 406.261 140.25C408.049 138.258 407.575 133.722 405.389 131.908C404.625 131.274 403.997 130.248 403.994 129.628C403.972 125.063 401.635 120.851 397.962 118.753C391.104 114.838 392.643 113.818 404.25 114.589C409.887 114.963 414.637 115.383 414.804 115.522C414.971 115.66 414.24 118.412 413.18 121.637C410.535 129.68 411.129 130.482 417 126.794C418.925 125.585 420.95 124.574 421.5 124.548C422.05 124.521 422.725 122.475 423 120L423.5 115.5L430.5 114.843C434.35 114.482 439.525 113.706 442 113.118C448.6 111.55 448.734 111.676 444.43 115.4C442.268 117.271 435.55 123.562 429.5 129.382C418.694 139.776 418.416 139.963 413.75 139.981C410.311 139.995 408.434 140.566 406.949 142.051C405.61 143.39 404.211 143.885 402.922 143.475C400.032 142.558 392.608 146.514 389.452 150.652C386.509 154.511 383.621 162.648 384.912 163.445C386.5 164.427 398.992 158.765 401.979 155.71C403.66 153.991 405.474 150.952 406.012 148.955C406.648 146.594 407.881 144.92 409.542 144.163C412.159 142.97 416 142.589 416 143.522C416 145.555 407.262 160.65 403.095 165.816C400.293 169.29 398 172.56 398 173.082C398 173.604 396.762 172.691 395.25 171.051C389.855 165.205 384.247 166.675 379.972 175.055C376.854 181.166 377.225 181.973 383.25 182.183C391.43 182.469 393.105 182.215 395.128 180.385C397.41 178.319 397.636 178.504 398.508 183.174C399.132 186.517 398.936 186.982 396.329 188.33C393.859 189.607 393.198 189.618 391.54 188.406C388.441 186.14 382.328 186.701 376.898 189.75C374.205 191.262 372.002 192.793 372.001 193.152C371.999 194.482 378.479 196 384.158 196C389.321 196 390.396 195.639 393.196 192.963C396.695 189.619 399.346 189.437 399.782 192.51C400.21 195.528 396.336 197.447 390.41 197.154C385.592 196.916 385.123 197.121 381.616 201.004C378.19 204.796 375.447 209.78 376.31 210.644C376.512 210.845 379.131 211.12 382.132 211.255C388.922 211.56 392.192 209.623 393.791 204.35C394.568 201.788 395.861 200.085 397.657 199.26C399.14 198.579 400.483 198.15 400.64 198.307C401.147 198.813 398.28 208.417 396.852 211C396.091 212.375 393.962 214.979 392.12 216.787C388.891 219.957 388.786 220.303 389.181 226.499C389.406 230.032 389.942 233.275 390.372 233.706C390.803 234.136 392.913 232.603 395.062 230.3C398.919 226.164 398.966 226.019 398.783 218.806C398.635 212.973 399.041 210.651 400.799 207.29C402.009 204.974 403 202.362 403 201.484C403 200.354 403.697 200.699 405.392 202.669C407.544 205.171 408.547 205.489 415.392 205.834C420.008 206.068 423 205.829 423 205.228C423 203.851 416.721 199.199 412.457 197.418C410.509 196.604 407.721 196.064 406.261 196.219C403.692 196.491 403.567 196.26 402.379 189C400.131 175.26 400.365 173.842 405.92 167.494C408.626 164.402 411.859 159.763 413.104 157.186C415.785 151.637 416.921 153.64 414.994 160.521C414.027 163.976 414.058 165.351 415.157 167.651C416.439 170.334 423.395 174.84 428.75 176.456C430.869 177.095 431 176.85 431 172.255C431 168.02 431.387 167.09 433.927 165.212C435.537 164.021 437 162.068 437.177 160.87C437.498 158.708 437.523 158.711 440.631 161.335C444.973 164.999 445.549 168.759 442.294 172.189C440.031 174.574 439.795 175.509 440.204 180.447C440.538 184.479 441.312 186.703 443.007 188.508C444.295 189.878 445.608 190.992 445.924 190.983C446.241 190.974 447.58 188.472 448.9 185.424C450.963 180.658 451.145 179.38 450.201 176.303L449.103 172.724L451.801 175.298C455.991 179.295 459.067 180.085 464.305 178.509C468.431 177.267 468.969 177.308 470.485 178.984C472.033 180.694 472.032 180.882 470.473 181.755C468.276 182.985 468.262 189.225 470.449 192.562C472.161 195.175 478.528 198.805 479.57 197.763C480.878 196.455 478.659 185.776 476.38 182.419C475.071 180.489 474 178.727 474 178.503C474 177.547 480.851 175.148 485.011 174.647C488.886 174.18 490.154 174.533 494.011 177.148C498.145 179.951 498.971 180.144 504.456 179.59C507.732 179.259 510.831 178.569 511.342 178.058C512.934 176.466 503.159 171 498.72 171H494.832L497.986 167.018C501.639 162.405 501.263 161 496.375 161C492.323 161 489.682 162.19 485.556 165.872L482.612 168.5L485.306 165.173C486.788 163.343 488.268 160.779 488.595 159.476C489.253 156.856 487.737 151.556 485.476 148.569C484.044 146.676 483.965 146.684 481.523 148.979C477.977 152.309 477.327 157.062 479.747 161.953C481.661 165.821 481.665 166.033 479.902 169.971C477.815 174.631 475.109 176 467.982 176C465.294 176 461.935 176.528 460.517 177.174C458.166 178.245 457.593 178.009 453.97 174.471C449.194 169.807 448.977 168.747 453.093 170.182C459.609 172.454 472.997 168.971 473.801 164.796C474.04 163.556 472.926 163.06 468.804 162.571C461.421 161.694 458.209 161.682 452.917 162.507C448.45 163.204 448.301 163.142 447.01 160.024C446.282 158.266 443.922 155.713 441.766 154.352C436.452 150.998 434.589 146.339 435.34 138.278C436.077 130.364 437.38 127.927 445.162 119.914C452.647 112.206 456.674 109 458.872 109C459.752 109 458.229 110.518 455.487 112.373C450.079 116.031 445.326 120.764 448.054 119.776C452.592 118.132 464.441 109.366 466.235 106.327C467.353 104.431 471.582 100.43 475.632 97.435C479.682 94.44 484.376 90.083 486.064 87.753C488.901 83.836 490.049 83.201 501.316 79.303C508.017 76.985 513.577 75.069 513.67 75.044C513.764 75.02 512.54 77.603 510.95 80.785C508.325 86.038 507.646 86.68 503.562 87.772C497.518 89.389 495.545 93.05 496.29 101.265C496.584 104.506 497.07 107.404 497.371 107.704C498.186 108.519 508.823 101.199 509.99 99.019C511.229 96.703 511.279 91.99 510.085 90.103C508.902 88.235 514.013 79.779 519.597 74.363C523.343 70.729 533.599 64 535.391 64C535.747 64 535.744 65.173 535.384 66.607C534.964 68.28 535.194 69.502 536.025 70.015C537.756 71.085 544.941 66.285 546.076 63.301C546.987 60.903 549 60.131 549 62.179C549 65.016 546.554 69.72 544.637 70.572C542.058 71.717 536.646 79.618 537.497 80.995C537.838 81.548 538.815 82 539.666 82C540.667 82 540.999 82.559 540.607 83.582C540.273 84.452 539.986 85.689 539.97 86.332C539.953 86.974 539.481 86.713 538.92 85.75C537.405 83.149 532.387 83.522 529.455 86.455C527.756 88.153 526.976 90.078 526.923 92.705C526.881 94.792 526.696 97.286 526.513 98.246C526.329 99.206 526.623 100.267 527.166 100.603C528.842 101.638 536.666 98.065 537.675 95.803C538.591 93.748 538.713 93.8 540.751 97.097C541.918 98.985 544.304 101.588 546.055 102.882C549.827 105.671 550.248 105.255 551.996 97.018C553.042 92.092 552.984 90.87 551.579 88.152C550.682 86.418 549.623 84.986 549.224 84.968C548.826 84.951 547.655 84.297 546.622 83.514C544.81 82.142 544.837 81.983 547.408 78.926C551.368 74.221 552.667 71.143 553.467 64.571C554.397 56.932 556.197 54.282 561.359 52.95C563.637 52.362 566.288 51.652 567.25 51.373C568.679 50.958 569 49.703 569 44.521V38.177L562.75 39.599C555.429 41.265 540.627 48.295 519.039 60.36C510.536 65.112 503.169 69 502.669 69C501.283 69 508.752 60.204 515.581 53.795C522.91 46.915 529.768 41.855 545 32.085C551.325 28.028 559.298 22.862 562.718 20.605L568.937 16.5L568.968 8.25C568.986 3.713 568.882 0 568.738 0C568.594 0 563.372 3.487 557.133 7.75ZM276.331 22.217C275.798 22.923 274.115 26.346 272.591 29.825C269.485 36.917 269.642 39.172 273.64 44.879C275.253 47.18 275.949 47.711 275.549 46.335C275.092 44.766 275.542 43.734 277.182 42.585C280.327 40.382 280.691 40.538 281.415 44.4C283.068 53.212 288.663 49.255 287.765 39.909C287.468 36.819 286.443 33.81 285.131 32.176C283.949 30.704 282.537 28.375 281.992 27C279.771 21.395 278.05 19.941 276.331 22.217ZM280 30.441C280 30.684 279.55 31.16 279 31.5C278.45 31.84 278 31.641 278 31.059C278 30.477 278.45 30 279 30C279.55 30 280 30.198 280 30.441ZM286.595 38.663C287.252 42.158 286.382 46 284.933 46C284.42 46 283.952 45.213 283.894 44.25C283.547 38.535 283.527 38.497 281.021 38.779C279.061 38.999 278.8 38.8 279.771 37.829C280.447 37.153 281 35.045 281 33.144V29.689L283.5 32.594C284.875 34.193 286.267 36.923 286.595 38.663ZM279.397 33.833C279.68 34.292 279.257 34.667 278.456 34.667C277.655 34.667 277 34.292 277 33.833C277 33.375 277.423 33 277.941 33C278.459 33 279.114 33.375 279.397 33.833ZM423.195 37.687C425.887 40.266 427.079 42.785 425 41.5C424.436 41.152 424 41.962 424 43.359C424 48.863 422.113 50.317 418.829 47.345C416.778 45.489 416.31 46.827 418.25 49.002C419.296 50.175 419.241 50.21 417.914 49.216C414.985 47.021 416.047 35 419.171 35C419.842 35 421.653 36.209 423.195 37.687ZM275.5 38C275.16 38.55 275.321 39 275.858 39C276.394 39 277.088 38.438 277.399 37.75C277.71 37.063 277.855 37.395 277.721 38.489C277.38 41.264 274 41.796 274 39.073C274 37.933 274.477 37 275.059 37C275.641 37 275.84 37.45 275.5 38ZM186.02 40.815C188.259 42.628 188.255 42.631 183.117 42.865C176.656 43.16 174.76 42.139 178.613 40.437C182.583 38.684 183.443 38.728 186.02 40.815ZM219 46.713C219 47.421 219.45 48 220 48C220.55 48 221 48.675 221 49.5C221 51.743 216.694 51.341 215.207 48.959C214.506 47.837 214.181 46.516 214.486 46.023C215.319 44.674 219 45.237 219 46.713ZM215.733 47.124C216.412 47.808 217.219 48.115 217.526 47.807C217.834 47.499 217.279 46.94 216.293 46.564C214.868 46.022 214.753 46.136 215.733 47.124ZM436.714 47.25C436.74 47.938 437.071 49.4 437.45 50.5C437.898 51.802 437.621 51.631 436.657 50.013C435.842 48.644 435.388 47.182 435.647 46.763C436.324 45.666 436.66 45.82 436.714 47.25ZM161.5 48C161.16 48.55 160.121 48.968 159.191 48.93C157.812 48.872 157.87 48.701 159.5 48C162.176 46.85 162.211 46.85 161.5 48ZM460.667 48.667C460.3 49.033 460 52.647 460 56.698C460 62.594 460.326 64.188 461.636 64.691C464.489 65.785 466.48 63.565 466.83 58.898C467.315 52.426 463.403 45.931 460.667 48.667ZM251.921 51.482C249.064 53.036 243.679 60.538 244.232 62.195C244.622 63.365 255.351 66.964 258.5 66.982C263.627 67.01 270.736 59.895 269.494 55.98C267.895 50.943 257.708 48.336 251.921 51.482ZM164.418 51.607C166.553 52.426 166.414 53.734 164.115 54.464C162.092 55.105 157 53.227 157 51.839C157 50.87 162.082 50.711 164.418 51.607ZM414.033 56.938C413.498 57.938 411.922 58.973 410.53 59.239C408.002 59.722 407.097 58.676 409.016 57.49C409.575 57.144 409.794 56.475 409.501 56.002C408.96 55.127 412.883 54.101 414.253 54.759C414.667 54.958 414.568 55.939 414.033 56.938ZM411 57C411 57.55 411.477 58 412.059 58C412.641 58 412.84 57.55 412.5 57C412.16 56.45 411.684 56 411.441 56C411.198 56 411 56.45 411 57ZM550.54 56.935C549.848 58.055 538.859 63.193 538.317 62.65C537.721 62.054 542.821 58.965 546.845 57.485C551.435 55.797 551.224 55.828 550.54 56.935ZM220 59.709C217.418 60.659 214.858 63.36 212.894 67.21C209.984 72.911 210.337 74 215.099 74C220.467 74 225.727 71.428 227.544 67.915C229.452 64.225 229.386 63.386 227 61C225.024 59.024 222.92 58.636 220 59.709ZM556.983 66.017C555.131 67.869 555.086 68.266 556.432 70.868C558.333 74.544 562.151 77 565.965 77C568.975 77 569 76.955 569 71.535C569 67.156 568.616 65.865 567.066 65.035C563.94 63.362 559.173 63.827 556.983 66.017ZM166 65.465C166 65.72 164.988 66.469 163.75 67.129C161.71 68.216 161.628 68.172 162.872 66.664C164.15 65.115 166 64.406 166 65.465ZM541 65.378C541 65.585 540.325 66.315 539.5 67C538.271 68.02 538 67.951 538 66.622C538 65.73 538.675 65 539.5 65C540.325 65 541 65.17 541 65.378ZM351 70.535C351 70.791 350.1 71 349 71C347.869 71 347 70.333 347 69.465C347 68.24 347.404 68.146 349 69C350.1 69.589 351 70.28 351 70.535ZM456.5 73.929C452.171 74.973 448.821 76.963 449.246 78.237C449.871 80.112 457.28 82.163 461.498 81.63C464.21 81.286 466.256 80.241 467.857 78.38L470.216 75.637L465.858 74.334C461.057 72.898 460.815 72.887 456.5 73.929ZM161.51 75.989C159.394 78.327 158.262 88.537 159.857 90.898C160.617 92.024 161.7 91.56 165.415 88.516C170.223 84.576 171.379 82.196 170.828 77.371C170.543 74.879 170.031 74.461 166.949 74.201C164.36 73.984 162.886 74.468 161.51 75.989ZM322.415 80.012C324.993 82.769 326.839 85.451 326.516 85.973C326.194 86.495 324.327 87.223 322.367 87.591C319.37 88.153 318.396 87.85 316.228 85.683C313.804 83.259 313.724 82.866 314.866 79.053C315.534 76.824 316.451 75 316.903 75C317.356 75 319.836 77.255 322.415 80.012ZM460.264 78.704C459.034 78.941 456.784 78.947 455.264 78.718C453.744 78.488 454.75 78.294 457.5 78.286C460.25 78.279 461.494 78.467 460.264 78.704ZM302.85 82.363C304.647 86.126 303.055 90.035 299.771 89.921C298.522 89.878 298.081 89.609 298.791 89.324C299.698 88.96 299.327 88.105 297.541 86.451C294.363 83.505 294.328 82.638 297.409 83.227C299.29 83.587 299.689 83.339 299.232 82.094C298.909 81.217 298.163 80.143 297.573 79.707C296.968 79.259 297.586 79.041 298.991 79.207C300.581 79.394 301.976 80.535 302.85 82.363ZM367 81.514C367 81.796 366.489 82.845 365.865 83.844C364.681 85.74 365.525 99.004 366.83 98.996C368.936 98.985 374.257 94.529 375.648 91.613C376.951 88.88 377.052 87.587 376.161 85.032L375.053 81.853L378.276 82.545C380.049 82.926 385.729 84.591 390.897 86.246C398.736 88.756 399.98 89.427 398.397 90.288C397.354 90.856 393.293 93.421 389.372 95.988C377.705 103.629 377.419 103.686 367.255 100.454C362.44 98.923 356.7 96.854 354.5 95.857C350.948 94.247 350.792 94.041 353.112 94.022C355.754 94 362.314 89.422 362.721 87.317C362.99 85.925 357.785 84 353.751 84C351.706 84 349.715 85.085 347.267 87.533C343.883 90.917 343.58 91.018 340.117 89.903C335.938 88.559 333.822 87.098 334.488 86.019C334.895 85.36 346.805 82.686 354 81.637C358.074 81.043 367 80.958 367 81.514ZM357.5 87C357.16 87.55 356.121 87.993 355.191 87.985C353.734 87.971 353.707 87.835 355 87C356.958 85.734 358.282 85.734 357.5 87ZM474 87.352C474 88.565 460.743 97.772 454.908 100.612C442.77 106.52 435.339 108.129 417.5 108.715C408.7 109.004 401.725 109.02 402 108.75C402.275 108.48 408.198 105.258 415.163 101.59L427.827 94.92L441.163 93.429C448.498 92.609 458.55 90.868 463.5 89.56C473.269 86.978 474 86.824 474 87.352ZM416.472 94.765C412.077 97.907 403.235 103.354 399.261 105.368C394.924 107.565 393.947 107.702 389.228 106.769C386.353 106.2 384.028 105.457 384.062 105.117C384.188 103.855 393.654 97.57 398 95.862C402.4 94.133 418.712 93.164 416.472 94.765ZM344.382 102.002C350.91 104.201 356.982 106.014 357.876 106.03C360.954 106.088 356.861 107.74 348.483 109.822C343.095 111.161 339.087 111.593 336.154 111.153C332.179 110.556 331.69 110.158 330.441 106.5C329.026 102.355 325.845 99 323.33 99C322.522 99 322.186 98.508 322.569 97.888C323.648 96.143 331.236 97.574 344.382 102.002ZM320.316 99.901C320.042 100.946 320.704 103.804 321.787 106.25L323.755 110.699L320.127 108.73C317.02 107.042 315.922 106.918 312.469 107.86C303.961 110.18 302.918 113.309 309.595 116.478C313.523 118.342 318.829 118.682 325.25 117.482C330.08 116.579 330.222 118.326 325.501 120.567C323.453 121.538 320.653 122.029 318.751 121.75C316.963 121.487 314.519 121.718 313.321 122.264C311.61 123.043 310.56 122.799 308.436 121.128C302.998 116.85 296.78 119.495 293.432 127.51C292.629 129.429 291.297 131 290.471 131C287.317 131 277.098 127.65 277.63 126.79C278.596 125.227 279.702 115 278.905 115C278.487 115 277.176 116.233 275.99 117.739C274.429 119.724 273.934 121.514 274.194 124.239C274.466 127.088 274.183 128.011 273.026 128.044C271.647 128.084 267.396 129.501 262.758 131.469C261.139 132.156 261.115 131.925 262.422 128.22C265.556 119.337 272.493 113 279.083 113C280.644 113 283.584 110.878 287.743 106.75L294.04 100.5L304.77 99.401C321.193 97.72 320.889 97.71 320.316 99.901ZM130.989 113.25C128.304 117.653 128.43 122.116 131.314 124.826C134.265 127.598 136.478 127.583 138.443 124.777C140.583 121.722 140.393 117.78 137.901 113.557C135.298 109.145 133.54 109.067 130.989 113.25ZM213.815 114.853C214.015 116.882 213.302 119.394 211.865 121.718L209.599 125.384L208.289 122.173C207.129 119.329 207.215 118.499 209.043 114.916C211.419 110.259 213.36 110.234 213.815 114.853ZM239.5 113C239.16 113.55 238.346 113.993 237.691 113.985C236.975 113.975 237.099 113.582 238 113C239.921 111.758 240.267 111.758 239.5 113ZM456.655 117.133C452.578 119.503 448.713 135 452.199 135C452.859 135 455.559 132.699 458.199 129.886C462.161 125.666 463 125.144 463 126.901C463 129.85 469.242 136.505 471.276 135.724C472.995 135.065 474.394 128.349 473.835 123.441C473.548 120.924 473.022 120.454 470.185 120.182C468.361 120.007 466.224 120.399 465.435 121.054C464.299 121.996 464 121.939 464 120.777C464 119.184 460.911 115.981 459.421 116.03C458.915 116.047 457.67 116.543 456.655 117.133ZM133.839 119.547C136.25 124.838 134.411 127.083 131.413 122.508C129.826 120.086 130.047 117 131.808 117C132.287 117 133.201 118.146 133.839 119.547ZM72.9998 121.532C72.9998 125.25 75.3678 130.183 78.3898 132.761L81.0408 135.022L82.0758 132.3C83.4328 128.731 82.4688 125.144 79.2418 121.75C75.8648 118.2 72.9998 118.1 72.9998 121.532ZM276.683 123.188C276.364 123.985 276.127 123.748 276.079 122.583C276.036 121.529 276.272 120.939 276.604 121.271C276.936 121.603 276.972 122.466 276.683 123.188ZM471.971 122.465C473.389 124.174 472.41 132.085 470.643 133.204C469.002 134.243 465 130.027 465 127.26C465 121.898 469.138 119.052 471.971 122.465ZM77.6558 125.508C78.2918 126.879 78.4758 128 78.0658 128C77.6558 128 76.8078 126.875 76.1818 125.5C75.5548 124.125 75.3708 123.004 75.7708 123.008C76.1718 123.012 77.0198 124.137 77.6558 125.508ZM174.811 125.661C177.81 127.562 177.263 130.41 173.823 130.809C170.636 131.178 164.229 126.057 165.436 124.104C166.336 122.648 171.378 123.485 174.811 125.661ZM317 125.049C312.819 127.886 312.181 128.026 312.715 125.983C313.068 124.633 314.074 124.005 315.867 124.015C317.971 124.028 318.199 124.235 317 125.049ZM166.466 128.962C169.194 131.977 174.455 133.386 178.16 132.094C181.345 130.984 192 131.681 192 133C192 134.078 181.657 135.964 172 136.646C164.162 137.2 163.35 137.08 161.574 135.1C160.097 133.454 159.922 132.678 160.824 131.776C161.471 131.129 162 129.79 162 128.8C162 126.427 164.245 126.508 166.466 128.962ZM194.128 128.692C194.882 129.623 194.976 130.07 194.335 129.686C193.695 129.302 192.996 129.511 192.783 130.152C192.531 130.907 191.397 131.065 189.553 130.603C186.589 129.859 187.017 128.551 190.5 127.713C191.6 127.448 192.557 127.18 192.628 127.116C192.698 127.052 193.373 127.761 194.128 128.692ZM64.4778 131.341L69.3288 133.682L63.9598 134.318C58.0798 135.015 56.3808 133.965 58.3318 130.839C58.9638 129.828 59.5138 129 59.5538 129C59.5938 129 61.8098 130.054 64.4778 131.341ZM88.9848 134.289C88.9928 134.724 88.3718 134.499 87.6048 133.789C86.8378 133.08 86.4438 132.114 86.7298 131.643C87.2488 130.789 88.9558 132.792 88.9848 134.289ZM121.624 135.008L125.972 139.016L122.382 138.57C120.407 138.325 118.702 137.984 118.593 137.812C116.077 133.85 115 131.97 115 131.535C115 129.997 117.755 131.442 121.624 135.008ZM201 132C199.625 132.44 197.6 132.839 196.5 132.885C194.852 132.955 194.764 132.799 196 132C196.825 131.467 198.85 131.069 200.5 131.115C203.44 131.198 203.45 131.215 201 132ZM432.757 135.829C432.046 139.425 432.176 142.124 433.267 146.405L434.73 152.152L432.18 153.122C430.18 153.882 429.437 153.746 428.734 152.49C428.031 151.234 427.533 151.143 426.419 152.067C424.184 153.922 424.75 151.648 427.549 147.522C428.952 145.456 429.925 143.591 429.712 143.378C429.499 143.165 427.901 143.487 426.162 144.093C423.115 145.156 422.557 145.976 422.942 148.824C423.041 149.552 422.606 150.77 421.975 151.53C421.344 152.29 421.142 153.42 421.525 154.04C421.984 154.784 421.417 155.054 419.861 154.834C416.617 154.375 416.215 150.006 419.003 145.495C420.558 142.979 432.582 131.048 433.606 131.004C433.664 131.002 433.283 133.173 432.757 135.829ZM185 139.57C185 139.883 183.688 142.047 182.083 144.379C179.415 148.257 178.861 148.582 175.574 148.198C171.149 147.682 170.47 146.693 172.001 142.997C173.213 140.071 174.726 139.474 181.75 139.15C183.537 139.067 185 139.256 185 139.57ZM282.965 141.934C283.534 142.998 284 144.348 284 144.934C284 146.122 280.008 146.436 279.986 145.25C279.979 144.838 279.701 143.488 279.37 142.25C278.598 139.37 281.458 139.119 282.965 141.934ZM140.6 146.6C140.244 147.527 139.728 148.061 139.453 147.786C139.178 147.511 139.244 146.527 139.6 145.6C139.956 144.673 140.472 144.139 140.747 144.414C141.022 144.689 140.956 145.673 140.6 146.6ZM236.168 146.5C239.836 146.5 242.695 146.641 242.522 146.813C242.349 146.985 239.922 147.729 237.129 148.466C232.117 149.788 228.143 152.231 223.436 156.882C222.111 158.192 219.333 159.565 217.263 159.934C213.864 160.539 213.225 160.285 210.652 157.302L207.803 154H211.967C217.256 154 219.288 152.888 221.991 148.514C223.885 145.45 224.502 145.098 226.831 145.751C228.299 146.163 232.501 146.5 236.168 146.5ZM109.739 146.627C110.97 146.957 111.684 147.703 111.325 148.284C110.929 148.924 111.278 149.107 112.211 148.749C113.22 148.362 114.139 149.009 114.876 150.626C116.383 153.936 116.292 155 114.5 155C113.675 155 113 154.55 113 154C113 153.45 112.523 153 111.941 153C111.359 153 111.211 153.563 111.613 154.25C112.015 154.938 111.289 154.6 110 153.5C108.711 152.4 107.982 152.057 108.38 152.739C108.86 153.56 108.608 153.787 107.629 153.411C106.818 153.1 105.909 152.205 105.609 151.423C105.308 150.64 104.224 150 103.198 150C100.629 150 99.8048 148.94 101.131 147.342C102.305 145.928 105.988 145.622 109.739 146.627ZM217.481 149.735C215.469 151.706 214.852 151.974 215.33 150.668C215.698 149.661 216 148.456 216 147.992C216 147.153 219.131 146.092 219.902 146.669C220.122 146.834 219.033 148.214 217.481 149.735ZM12.4998 147.65C11.3998 147.88 8.11282 148.778 5.19482 149.645C0.10782 151.156 -0.041181 151.297 1.57982 153.088C4.33382 156.132 13.1018 160 17.2458 160C20.5918 160 20.9728 160.226 20.1398 161.714C19.5228 162.817 17.8278 163.476 15.3908 163.56C12.2588 163.669 10.9338 164.444 7.76082 168.02C5.64782 170.4 4.05682 173.057 4.22382 173.924C4.59982 175.876 4.22882 175.914 11.8048 173.151C16.2128 171.544 18.4428 170.122 19.2158 168.426C19.8238 167.092 20.8688 166 21.5388 166C22.2088 166 23.3238 164.632 24.0168 162.959C24.7098 161.287 26.5348 158.181 28.0738 156.056C30.7258 152.396 30.7798 152.111 29.1158 150.605C28.1508 149.732 24.9678 148.563 22.0438 148.008C16.5578 146.968 15.8838 146.943 12.4998 147.65ZM404 148.759C404 149.177 402.988 150.146 401.75 150.912C395.501 154.782 394.809 154.933 398.5 151.62C402.444 148.08 404 147.271 404 148.759ZM13.7288 149.604C13.3968 149.936 12.5338 149.972 11.8128 149.683C11.0148 149.364 11.2518 149.127 12.4168 149.079C13.4708 149.036 14.0608 149.272 13.7288 149.604ZM23.4998 150C23.8398 150.55 24.9908 151 26.0588 151C28.1758 151 28.2648 151.145 27.4498 153.27C27.0998 154.181 25.9978 154.531 24.4278 154.231C22.4578 153.854 22.1878 153.478 23.0998 152.379C24.0338 151.254 23.6248 150.997 20.8718 150.985C19.0178 150.976 16.8248 150.533 15.9998 150C14.8998 149.289 15.6168 149.027 18.6908 149.015C20.9958 149.007 23.1598 149.45 23.4998 150ZM305.131 152.561C302.503 155.901 300.247 165.647 301.753 167.153C303.255 168.655 311.049 164.274 312.708 160.996C313.402 159.623 313.977 156.588 313.985 154.25C314 150.074 313.94 150 310.573 150C308.086 150 306.592 150.703 305.131 152.561ZM310.674 155.717C312.066 160.164 311.155 162.352 307.02 164.49C303.146 166.493 302.996 166.446 303.022 163.25C303.051 159.608 306.557 152 308.206 152C308.924 152 310.034 153.673 310.674 155.717ZM442.365 157.073C443.814 158.212 445 159.842 445 160.695C445 162.062 444.744 162.074 442.823 160.799C440.213 159.065 437.352 155 438.743 155C439.286 155 440.916 155.933 442.365 157.073ZM268.5 157C268.16 157.55 268.359 158 268.941 158C270.105 158 270.311 161.238 269.37 164.75C268.46 168.144 267.363 167.471 266.174 162.789C265.416 159.799 265.416 158.204 266.175 157.289C267.428 155.779 269.407 155.533 268.5 157ZM431.772 160.75C431.931 162.856 431.752 163.149 431.005 162C429.827 160.187 429.705 158 430.782 158C431.212 158 431.657 159.238 431.772 160.75ZM238.073 165.635C235.262 169.208 235.231 177.111 238.012 181.017C240.526 184.547 248.924 189.443 249.487 187.706C249.703 187.043 250.614 183.35 251.512 179.5C253.464 171.131 252.651 167.977 247.775 165.004C243.349 162.306 240.548 162.488 238.073 165.635ZM467.5 164.71L471.5 165.536L466.197 167.819C460.373 170.325 458.18 170.12 456.155 166.877C455.035 165.084 455.036 164.585 456.158 163.835C457.49 162.945 459.817 163.124 467.5 164.71ZM222.542 170.75L221.5 176.5L221.187 172.136C220.855 167.506 221.408 165 222.761 165C223.214 165 223.116 167.588 222.542 170.75ZM34.6828 170.188C34.3638 170.985 34.1268 170.748 34.0788 169.583C34.0358 168.529 34.2718 167.939 34.6038 168.271C34.9358 168.603 34.9718 169.466 34.6828 170.188ZM448.128 170.75C449.371 172.336 449.336 172.371 447.75 171.128C446.084 169.821 445.555 169 446.378 169C446.585 169 447.373 169.787 448.128 170.75ZM17.3588 171.919C13.6188 174.204 12.9878 175.121 11.9308 179.807C10.8208 184.728 11.7988 189 14.0358 189C16.4568 189 20.6918 183.77 21.9558 179.219C23.2808 174.449 23.2608 173.736 21.7498 171.691C20.5828 170.112 20.2928 170.127 17.3588 171.919ZM18.6828 176.188C18.3638 176.985 18.1268 176.748 18.0788 175.583C18.0358 174.529 18.2718 173.939 18.6038 174.271C18.9358 174.603 18.9718 175.466 18.6828 176.188ZM113.985 177.25C113.973 179.716 113.736 180.138 113 179C111.73 177.035 111.73 174 113 174C113.55 174 113.993 175.463 113.985 177.25ZM507.28 176.414C508.879 177.627 508.601 177.833 504.546 178.441C502.022 178.819 499.254 178.68 498.266 178.124C496.667 177.224 496.736 177.035 499 176.128C502.476 174.736 505.191 174.829 507.28 176.414ZM327.607 179.061C330.55 180.745 333.199 182.513 333.493 182.989C334.307 184.305 330.331 185.232 327.005 184.501C322.179 183.441 317.087 176 321.187 176C321.775 176 324.664 177.378 327.607 179.061ZM306.48 177.914C308.246 178.604 308.084 178.858 304.98 180.26C300.809 182.144 295.113 182.991 294.397 181.833C294.114 181.375 294.981 181 296.324 181C297.926 181 298.947 180.311 299.29 179C299.839 176.899 302.754 176.459 306.48 177.914ZM99.2598 186.25C97.4448 188.555 96.9338 193.041 98.0248 197.094C99.1188 201.155 105.275 209.001 107.366 208.999C108.596 208.997 112 198.54 112 194.766C112 191.699 109.559 188.34 105.989 186.494C102.465 184.672 100.558 184.603 99.2598 186.25ZM307.345 192.695C305.972 195.277 304.095 197.993 303.174 198.729C295.784 204.639 294.076 203.859 297.723 196.239C299.598 192.321 300.913 190.835 302.871 190.417C304.317 190.109 306.4 189.47 307.5 188.996C308.6 188.523 309.577 188.105 309.671 188.068C309.765 188.03 308.718 190.113 307.345 192.695ZM312.004 196.182C309.121 202.533 309.42 205.655 313.25 209.237C321.524 216.975 323.022 216.558 323.725 206.322C324.136 200.339 323.901 199.07 321.815 196C320.249 193.697 318.5 192.391 316.699 192.182C314.326 191.906 313.703 192.437 312.004 196.182ZM32.9998 194.694C32.9998 197.164 37.1738 202.815 40.7298 205.16C43.3358 206.879 52.9998 207.844 52.9998 206.386C52.9998 206.049 52.0168 204.024 50.8158 201.886C48.4768 197.724 43.3318 194.64 36.7498 193.453C33.4858 192.865 32.9998 193.026 32.9998 194.694ZM321.49 197.98C323.846 202.537 323.234 213 320.611 213C319.976 213 317.778 211.617 315.728 209.927C312.559 207.316 312 206.255 312 202.861C312 198.854 313.393 195.089 315.346 193.82C316.94 192.783 319.806 194.724 321.49 197.98ZM46.1198 199.135C48.8448 200.175 51.5638 204.533 50.0658 205.459C49.5938 205.751 47.9238 205.32 46.3538 204.501C44.7838 203.682 43.8848 203.01 44.3558 203.006C44.8258 203.003 43.7008 201.586 41.8558 199.858C38.7248 196.926 38.6678 196.763 40.9998 197.425C42.3748 197.815 44.6788 198.584 46.1198 199.135ZM75.7008 213.605C75.0588 219.829 74.5078 220.908 72.8298 219.23C70.5408 216.941 72.0358 208 74.7068 208C76.0188 208 76.1838 208.929 75.7008 213.605ZM402.223 210.557C400.493 211.768 400 213.099 400 216.554C400 220.215 400.608 221.667 403.465 224.829C406.815 228.538 414.438 232.895 415.579 231.754C415.887 231.447 416.22 227.745 416.319 223.529C416.5 215.867 416.498 215.861 412.765 212.431C408.69 208.688 405.659 208.149 402.223 210.557ZM51.0528 211.947C47.7998 215.2 46.0068 219.641 45.3288 226.123L44.6838 232.296L47.5918 231.575C56.5808 229.345 63.5878 222.163 62.6298 216.161C62.3368 214.324 61.5698 212.187 60.9258 211.411C59.2038 209.335 53.3458 209.654 51.0528 211.947ZM411.437 213.25C414.614 216.279 417.573 222.09 415.188 220.616C414.623 220.267 413.409 220.734 412.49 221.653C410.928 223.215 410.612 223.203 407.659 221.475C401.695 217.984 400.428 214.341 404.25 211.674C407.343 209.517 407.577 209.568 411.437 213.25ZM59.4998 213C59.8398 213.55 59.6678 214 59.1178 214C58.5678 214 57.8398 213.55 57.4998 213C57.1598 212.45 57.3318 212 57.8818 212C58.4318 212 59.1598 212.45 59.4998 213Z" fill="#6B7C32"/>
</svg>
